<svg id="visual" viewBox="0 0 900 600" width="900" height="600" xmlns="http://www.w3.org/2000/svg" xmlns:xlink="http://www.w3.org/1999/xlink" version="1.1"><path d="M0 49L100 31L200 19L300 19L400 19L500 37L600 37L700 37L800 31L900 37L900 0L800 0L700 0L600 0L500 0L400 0L300 0L200 0L100 0L0 0Z" fill="#292324"></path><path d="M0 109L100 85L200 91L300 61L400 73L500 97L600 103L700 79L800 61L900 61L900 35L800 29L700 35L600 35L500 35L400 17L300 17L200 17L100 29L0 47Z" fill="#442a2d"></path><path d="M0 289L100 211L200 283L300 247L400 193L500 235L600 211L700 241L800 187L900 271L900 59L800 59L700 77L600 101L500 95L400 71L300 59L200 89L100 83L0 107Z" fill="#5f3033"></path><path d="M0 325L100 235L200 313L300 277L400 217L500 271L600 247L700 259L800 217L900 319L900 269L800 185L700 239L600 209L500 233L400 191L300 245L200 281L100 209L0 287Z" fill="#7a3636"></path><path d="M0 379L100 307L200 373L300 349L400 289L500 319L600 283L700 325L800 253L900 367L900 317L800 215L700 257L600 245L500 269L400 215L300 275L200 311L100 233L0 323Z" fill="#943d36"></path><path d="M0 403L100 367L200 397L300 403L400 313L500 361L600 319L700 349L800 307L900 391L900 365L800 251L700 323L600 281L500 317L400 287L300 347L200 371L100 305L0 377Z" fill="#ad4633"></path><path d="M0 469L100 403L200 439L300 445L400 391L500 463L600 391L700 403L800 343L900 493L900 389L800 305L700 347L600 317L500 359L400 311L300 401L200 395L100 365L0 401Z" fill="#c4512c"></path><path d="M0 553L100 553L200 517L300 559L400 511L500 523L600 511L700 553L800 505L900 571L900 491L800 341L700 401L600 389L500 461L400 389L300 443L200 437L100 401L0 467Z" fill="#d95e1f"></path><path d="M0 601L100 601L200 601L300 601L400 601L500 601L600 601L700 601L800 601L900 601L900 569L800 503L700 551L600 509L500 521L400 509L300 557L200 515L100 551L0 551Z" fill="#ec6e00"></path></svg>