<!DOCTYPE svg PUBLIC "-//W3C//DTD SVG 1.1//EN" "http://www.w3.org/Graphics/SVG/1.1/DTD/svg11.dtd">
<!-- Uploaded to: SVG Repo, www.svgrepo.com, Transformed by: SVG Repo Mixer Tools -->
<svg height="221px" width="221px" version="1.1" id="Layer_1" xmlns="http://www.w3.org/2000/svg" xmlns:xlink="http://www.w3.org/1999/xlink" viewBox="-47.39 -47.39 568.71 568.71" xml:space="preserve" fill="#000000" stroke="#000000" stroke-width="19.905102">
<g id="SVGRepo_bgCarrier" stroke-width="0"/>
<g id="SVGRepo_tracerCarrier" stroke-linecap="round" stroke-linejoin="round"/>
<g id="SVGRepo_iconCarrier"> <circle style="fill:#FC7C09;" cx="236.966" cy="236.966" r="236.966"/> <path style="fill:#ECA448;" d="M324.149,147.755c0-6.514-5.283-11.801-11.802-11.801h-45.646c-6.526,0-11.809,5.287-11.809,11.801 v116.713l69.256-69.26V147.755z"/> <g> <path style="fill:#FFFFFF;" d="M324.149,326.151c0,6.518-5.283,11.802-11.802,11.802h-45.646c-6.526,0-11.809-5.283-11.809-11.802 V147.755c0-6.514,5.283-11.801,11.809-11.801h45.646c6.518,0,11.802,5.287,11.802,11.801L324.149,326.151L324.149,326.151z"/> <path style="fill:#FFFFFF;" d="M219.016,326.151c0,6.518-5.283,11.802-11.802,11.802h-45.657c-6.518,0-11.802-5.283-11.802-11.802 V147.755c0-6.514,5.283-11.801,11.802-11.801h45.653c6.518,0,11.801,5.287,11.801,11.801v178.396H219.016z"/> </g> </g>
</svg>