<!DOCTYPE svg PUBLIC "-//W3C//DTD SVG 1.1//EN" "http://www.w3.org/Graphics/SVG/1.1/DTD/svg11.dtd">
<!-- Uploaded to: SVG Repo, www.svgrepo.com, Transformed by: SVG Repo Mixer Tools -->
<svg version="1.1" id="Layer_1" xmlns="http://www.w3.org/2000/svg" xmlns:xlink="http://www.w3.org/1999/xlink" viewBox="0 0 512 512" xml:space="preserve" width="800px" height="800px" fill="#000000">
<g id="SVGRepo_bgCarrier" stroke-width="0"/>
<g id="SVGRepo_tracerCarrier" stroke-linecap="round" stroke-linejoin="round"/>
<g id="SVGRepo_iconCarrier"> <path style="fill:#F99C3Eff;" d="M472.071,223.983C472.071,104.615,375.369,7.848,256,7.848S39.929,104.614,39.929,223.983v280.693 h432.143V223.983z"/> <rect x="39.929" y="303.776" style="fill:#FC7C09ff;" width="432.143" height="200.899"/> <rect x="40.346" y="480.139" style="fill:#A65A53;" width="432.268" height="24.015"/> <circle style="fill:#514A51;" cx="256.481" cy="223.982" r="160.102"/> <circle style="fill:#FFFFFF;" cx="256.481" cy="223.982" r="136.088"/> <path style="fill:#FC7C09ff;" d="M245.603,119.384l-37.152,96.594v72.045c0,26.526,21.504,48.03,48.03,48.03l0,0 c26.526,0,48.03-21.504,48.03-48.03v-72.045l-37.152-96.594c-1.732-4.501-6.056-7.472-10.879-7.472l0,0 C251.659,111.912,247.334,114.883,245.603,119.384z"/> <circle style="fill:#F1506E;" cx="256.481" cy="288.018" r="24.015"/> <path d="M256.482,392.088c-92.693,0-168.106-75.412-168.106-168.106S163.788,55.877,256.482,55.877s168.106,75.411,168.106,168.106 S349.175,392.088,256.482,392.088z M256.482,71.887c-83.865,0-152.095,68.229-152.095,152.095s68.23,152.095,152.095,152.095 c83.866,0,152.095-68.23,152.095-152.095S340.347,71.887,256.482,71.887z"/> <path d="M256.482,368.072c-79.451,0-144.09-64.638-144.09-144.09s64.638-144.091,144.09-144.091s144.091,64.638,144.091,144.091 C400.572,303.434,335.934,368.072,256.482,368.072z M256.482,95.902c-70.623,0-128.081,57.457-128.081,128.081 s57.457,128.08,128.081,128.08c70.624,0,128.081-57.456,128.081-128.08S327.106,95.902,256.482,95.902z"/> <g> <rect x="248.152" y="24.401" style="fill:#FFFFFF;" width="15.695" height="24.066"/> <rect x="111.458" y="82.956" transform="matrix(-0.7071 -0.7071 0.7071 -0.7071 146.4488 242.584)" style="fill:#FFFFFF;" width="24.015" height="16.01"/> <rect x="56.67" y="215.883" style="fill:#FFFFFF;" width="24.066" height="15.695"/> <rect x="115.463" y="344.988" transform="matrix(-0.7071 -0.7071 0.7071 -0.7071 -41.6604 696.7338)" style="fill:#FFFFFF;" width="16.01" height="24.015"/> <rect x="248.152" y="400.041" style="fill:#FFFFFF;" width="15.695" height="24.066"/> <rect x="377.495" y="348.989" transform="matrix(-0.7071 -0.7071 0.7071 -0.7071 412.4888 884.8478)" style="fill:#FFFFFF;" width="24.015" height="16.011"/> <rect x="433.356" y="215.883" style="fill:#FFFFFF;" width="24.066" height="15.695"/> <rect x="381.484" y="78.963" transform="matrix(-0.7071 -0.7071 0.7071 -0.7071 600.5748 430.7072)" style="fill:#FFFFFF;" width="16.011" height="24.015"/> </g> <path d="M256.482,344.058c-30.898,0-56.035-25.136-56.035-56.035v-73.531l37.685-97.981c2.899-7.538,10.274-12.602,18.35-12.602 c8.075,0,15.449,5.064,18.35,12.601l37.685,97.982v73.531C312.517,318.92,287.379,344.058,256.482,344.058z M216.456,217.464v70.559 c0,22.07,17.955,40.025,40.025,40.025s40.025-17.955,40.025-40.025v-70.559l-36.617-95.206c-0.538-1.399-1.907-2.34-3.407-2.34 c-1.499,0-2.869,0.941-3.408,2.34L216.456,217.464z"/> <path d="M263.848,256.867V152.056h-15.695v105.053c-13.63,3.676-23.691,16.14-23.691,30.914c0,17.656,14.364,32.02,32.02,32.02 s32.019-14.364,32.019-32.02C288.502,272.903,277.963,260.205,263.848,256.867z M256.482,304.033c-8.828,0-16.01-7.182-16.01-16.01 c0-8.828,7.182-16.01,16.01-16.01c8.828,0,16.009,7.182,16.009,16.01S265.31,304.033,256.482,304.033z"/> <rect x="352.787" y="472.239" width="64.874" height="15.695"/> <rect x="72.366" y="432.477" style="fill:#FFFFFF;" width="63.827" height="15.695"/> <rect x="144.564" y="432.477" width="15.695" height="15.695"/> <rect x="168.63" y="432.477" width="15.695" height="15.695"/> <rect x="192.696" y="432.477" width="16.742" height="15.695"/> <path d="M414.097,65.613C371.944,23.302,315.798,0,256,0S140.056,23.302,97.904,65.613c-42.109,42.267-65.3,98.511-65.3,158.369V512 h446.791V223.983C479.396,164.124,456.205,107.881,414.097,65.613z M48.3,496.305v-8.371h288.793v-15.695H48.3V312.147h40.808 v-15.695H48.3v-72.469c0-55.677,21.565-107.986,60.723-147.293C148.209,37.357,200.406,15.695,256,15.695 S363.792,37.357,402.978,76.69c39.158,39.305,60.723,91.615,60.723,147.293v72.469h-38.715v15.695H463.7v160.092h-30.344v15.695 H463.7v8.371H48.3z"/> </g>
</svg>